HIERARCHY
ROOT Hips
{
  OFFSET 0 0 0
  CHANNELS 6 Xposition Yposition Zposition Zrotation Yrotation Xrotation
  JOINT LeftThigh
  {
    OFFSET 8.409438 0 -5.917753
    CHANNELS 3 Zrotation Yrotation Xrotation
    JOINT LeftLeg
    {
      OFFSET 0 0 -42.358652
      CHANNELS 3 Zrotation Yrotation Xrotation
      JOINT LeftFoot
      {
        OFFSET 0 0 -39.357303
        CHANNELS 3 Zrotation Yrotation Xrotation
      }
    }
  }
  JOINT RightThigh
  {
    OFFSET -8.409438 0 -5.917753
    CHANNELS 3 Zrotation Yrotation Xrotation
    JOINT RightLeg
    {
      OFFSET 0 0 -42.358652
      CHANNELS 3 Zrotation Yrotation Xrotation
      JOINT RightFoot
      {
        OFFSET 0 0 -39.357303
        CHANNELS 3 Zrotation Yrotation Xrotation
      }
    }
  }
  JOINT SpineLow
  {
    OFFSET 0 0 4.719101
    CHANNELS 3 Zrotation Yrotation Xrotation
    JOINT SpineMid
    {
      OFFSET 0 0 12.899191
      CHANNELS 3 Zrotation Yrotation Xrotation
      JOINT Chest
      {
        OFFSET 0 0 12.899191
        CHANNELS 3 Zrotation Yrotation Xrotation
        JOINT LeftShoulder
        {
          OFFSET 7.550562 1.41573 9.438202
          CHANNELS 3 Zrotation Yrotation Xrotation
          JOINT LeftArm
          {
            OFFSET 9.155056 0 4.247191
            CHANNELS 3 Zrotation Yrotation Xrotation
            JOINT LeftForearm
            {
              OFFSET 0 0 25.771955
              CHANNELS 3 Zrotation Yrotation Xrotation
              JOINT LeftHand
              {
                OFFSET 0 0 25.197169
                CHANNELS 3 Zrotation Yrotation Xrotation
              }
            }
          }
        }
        JOINT RightShoulder
        {
          OFFSET -7.550562 1.41573 9.438202
          CHANNELS 3 Zrotation Yrotation Xrotation
          JOINT RightArm
          {
            OFFSET -9.155056 0 4.247191
            CHANNELS 3 Zrotation Yrotation Xrotation
            JOINT RightForearm
            {
              OFFSET 0 0 -25.771955
              CHANNELS 3 Zrotation Yrotation Xrotation
              JOINT RightHand
              {
                OFFSET 0 0 -25.197169
                CHANNELS 3 Zrotation Yrotation Xrotation
              }
            }
          }
        }
        JOINT Neck
        {
          OFFSET 0 0 15.101124
          CHANNELS 3 Zrotation Yrotation Xrotation
          JOINT Head
          {
            OFFSET 0 0 11.325843
            CHANNELS 3 Zrotation Yrotation Xrotation
            End Site
            {
              OFFSET 0 0 14.157303
            }
          }
        }
      }
    }
  }
}
MOTION
Frames: 8
Frame Time: 0.0
0.0  89.887642  0.0  -1.611289  15.704186  -126.220315  6.111304  -12.59443  12.251598  -10.992852  10.06664  36.720531  -15.060086  -1.463971  -0.287549  0.05669  -22.024256  -95.304441  20.619784  18.525457  77.644645  9.592945  -5.148905  2.626476  -2.489661  -0.040592  3.964839  -6.790907  0.296595  10.828515  -6.790907  0.296595  10.828515  -16.526613  28.530721  8.616057  130.464797  58.986053  -156.751007  -29.878156  13.878759  93.009122  52.939  11.515071  57.348064  -3.390557  10.239317  25.354022  65.778052  34.550029  8.152452  -8.541907  -2.843475  -97.464224  80.356469  -3.088414  -7.975607  -31.541741  1.343289  5.321376  -23.669052  0.734791  4.073217  
0.0  89.887642  0.0  -1.322631  14.856428  -125.739361  5.066904  -12.378248  12.416871  -9.973566  10.500904  36.169942  -14.422312  -1.204444  -0.300471  3.480846  -11.22275  -101.288641  14.509869  19.655062  93.034791  11.629865  -3.692428  1.318361  -2.871746  -0.008179  3.494726  -7.832049  0.391679  9.53806  -7.832049  0.391679  9.538061  -12.944222  30.127782  10.788487  133.853767  61.033067  -152.637121  -30.484047  14.215589  93.3235  51.798174  11.313983  56.400177  -1.363426  11.573415  27.56135  68.940528  32.169976  9.452022  -8.327281  -1.549625  -97.687183  78.938067  -3.707469  -5.447027  -29.600698  2.772013  6.642746  -22.229391  1.762035  5.129935  
0.0  89.887642  0.0  -0.835601  13.491604  -124.97599  4.223634  -12.027492  12.119798  -10.31146  11.533466  35.75058  -12.359648  -0.646848  -0.664956  3.684227  -6.095642  -102.532612  11.668173  17.807559  102.537004  12.896633  -2.992042  1.146268  -2.986747  -0.115799  2.952209  -8.164114  0.04838  8.069709  -8.164113  0.04838  8.069709  -10.299934  32.398771  13.550472  137.761633  63.269429  -148.025142  -30.959861  14.282092  93.434735  50.841749  10.842955  55.425573  -0.143053  13.821935  30.987921  71.178233  30.205219  9.406462  -7.346637  0.096541  -97.771285  78.054269  -5.157049  -3.532198  -28.524162  4.377695  7.827758  -21.442883  2.925767  6.088631  
0.0  89.887642  0.0  -0.337799  11.989425  -124.21105  3.821443  -11.968015  11.790527  -10.97114  12.708633  35.243088  -10.268531  -0.153417  -0.896209  3.090023  -4.434124  -101.492742  9.807496  14.582834  109.479169  13.077296  -1.127554  1.267468  -2.858816  -0.142292  2.747864  -7.81885  -0.063543  7.515756  -7.818851  -0.063543  7.515756  -10.189769  33.172856  14.276715  143.052963  65.320307  -142.376033  -31.285858  14.501331  93.371377  49.800644  10.397075  54.423187  -0.461441  15.152053  32.9461  72.463708  29.061014  9.105336  -5.173056  1.598963  -97.642896  76.757771  -4.850309  -2.046159  -28.198356  4.70893  8.39256  -21.206201  3.152864  6.525321  
0.0  89.887642  0.0  0.379334  10.365822  -123.946795  4.365563  -12.183082  11.835014  -11.17202  13.565953  34.935734  -9.034658  0.154391  -0.747282  2.265455  -4.358141  -100.1148  9.637243  11.401911  116.72653  13.476407  1.267598  1.463376  -2.716695  0.021038  2.798671  -7.412016  0.371133  7.636496  -7.412016  0.371133  7.636496  -10.712703  32.594456  14.098108  150.39017  67.005083  -135.086512  -31.612136  15.13466  93.181217  48.618842  10.114827  53.337581  -0.826243  15.363691  33.745633  73.579012  28.75385  8.988261  -2.069725  2.817152  -97.11932  76.444971  -2.043185  -0.351963  -27.648454  4.232616  8.69509  -20.792067  2.788223  6.726702  
0.0  89.887642  0.0  1.130351  8.791638  -124.116584  5.478854  -12.557763  12.010597  -10.224446  13.727661  35.439928  -9.477452  0.012765  -0.582852  1.862876  -6.004328  -98.225506  12.853105  8.881125  123.777739  15.528922  3.001656  1.739978  -2.679012  0.301333  2.976725  -7.273661  1.150202  8.092474  -7.273662  1.150202  8.092474  -10.983114  31.394679  13.50833  158.643329  68.197942  -127.197675  -32.072329  16.167747  92.919387  47.371305  9.992319  52.108595  0.70937  13.878524  34.178793  75.15277  29.408383  10.028107  -0.446275  3.441048  -95.834086  73.316347  -6.621926  -0.511042  -26.626418  3.391184  8.860351  -20.018107  2.162419  6.806722  
0.0  89.887642  0.0  1.663946  6.96121  -123.739725  6.865636  -13.050666  11.401577  -8.998746  13.569611  36.200789  -10.367531  -0.267964  -0.437177  3.787783  -7.690758  -94.436847  15.012675  7.600996  129.288968  17.207731  5.041163  1.282507  -2.86465  0.513096  2.958647  -7.755672  1.747641  8.015074  -7.755672  1.747641  8.015074  -9.530451  30.724946  13.461161  166.816418  68.924292  -119.443898  -32.694578  17.320333  92.559883  46.143655  9.902531  50.740031  2.233513  13.255774  33.498342  80.310899  29.300123  13.066636  -0.403544  3.892577  -94.380202  74.265634  -6.194321  -1.685826  -24.76975  2.963417  9.049756  -18.621878  1.859573  6.919611  
0.0  89.887642  0.0  1.757776  4.554638  -121.876124  8.472425  -13.71053  9.090052  -8.16223  13.533394  36.776442  -10.467457  -0.368695  -0.297092  7.750516  -10.720949  -92.044206  16.923078  6.817992  134.73373  17.879508  7.021757  0.947562  -3.139043  0.565808  2.661921  -8.508154  1.886329  7.190397  -8.508155  1.886329  7.190397  -7.335873  30.377022  13.496048  174.282387  69.275225  -112.472399  -33.601778  18.368769  92.101948  45.131189  9.852197  49.28696  4.816431  12.527149  32.625564  85.767956  28.850877  16.997193  -1.207676  4.347416  -92.767718  74.430649  -6.385837  -2.551702  -22.440703  2.758943  9.277699  -16.873759  1.731539  7.06969  
